HIERARCHY
ROOT Hips
{
	OFFSET 0.00000 0.00000 0.00000
	CHANNELS 6 Xposition Yposition Zposition Zrotation Yrotation Xrotation 
	JOINT LHipJoint
	{
		OFFSET 0 0 0
		CHANNELS 3 Zrotation Yrotation Xrotation
		JOINT LeftHip
		{
			OFFSET 1.84395 -1.68683 0.74144
			CHANNELS 3 Zrotation Yrotation Xrotation
			JOINT LeftKnee
			{
				OFFSET 2.27037 -6.23779 0.00000
				CHANNELS 3 Zrotation Yrotation Xrotation
				JOINT LeftAnkle
				{
					OFFSET 2.56918 -7.05877 0.00000
					CHANNELS 3 Zrotation Yrotation Xrotation
					JOINT LeftToe
					{
						OFFSET 0.22276 -0.61202 1.71784
						CHANNELS 3 Zrotation Yrotation Xrotation
						End Site
						{
							OFFSET 0.00000 -0.00000 0.91613
						}
					}
				}
			}
		}
	}
	JOINT RHipJoint
	{
		OFFSET 0 0 0
		CHANNELS 3 Zrotation Yrotation Xrotation
		JOINT RightHip
		{
			OFFSET -1.76833 -1.68684 0.74144
			CHANNELS 3 Zrotation Yrotation Xrotation
			JOINT RightKnee
			{
				OFFSET -2.49360 -6.85110 0.00000
				CHANNELS 3 Zrotation Yrotation Xrotation
				JOINT RightAnkle
				{
					OFFSET -2.55538 -7.02085 0.00000
					CHANNELS 3 Zrotation Yrotation Xrotation
					JOINT RightToe
					{
						OFFSET -0.21516 -0.59115 1.68050
						CHANNELS 3 Zrotation Yrotation Xrotation
						End Site
						{
							OFFSET -0.00000 -0.00000 0.89604
						}
					}
				}
			}
		}
	}
	JOINT lowerback
	{
		OFFSET 0 0 0
		CHANNELS 3 Zrotation Yrotation Xrotation
		JOINT Chest
		{
			OFFSET 0.06382 1.72312 -0.19613
			CHANNELS 3 Zrotation Yrotation Xrotation
			JOINT Chest2
			{
				OFFSET -0.00055 1.73507 0.23859
				CHANNELS 3 Zrotation Yrotation Xrotation
				JOINT lowerneck
				{
					OFFSET 0 0 0
					CHANNELS 3 Zrotation Yrotation Xrotation
					JOINT Neck
					{
						OFFSET 0.03638 1.65562 0.09633
						CHANNELS 3 Zrotation Yrotation Xrotation
						JOINT Head
						{
							OFFSET 0.06388 1.62807 -0.32386
							CHANNELS 3 Zrotation Yrotation Xrotation
							End Site
							{
								OFFSET 0.00995 1.67644 -0.12021
							}
						}
					}
				}
				JOINT LeftCollar
				{
					OFFSET 0 0 0
					CHANNELS 3 Zrotation Yrotation Xrotation
					JOINT LeftShoulder
					{
						OFFSET 3.09648 1.42991 0.28122
CHANNELS 3 Zrotation Xrotation Yrotation
						JOINT LeftElbow
						{
OFFSET 0 -5.118780 -0.000000
CHANNELS 3 Zrotation Xrotation Yrotation
							JOINT LeftWrist
							{
OFFSET 0 -3.599710 0.000000
CHANNELS 3 Zrotation Xrotation Yrotation
								JOINT lhand
								{
									OFFSET 0 0 0
CHANNELS 3 Zrotation Xrotation Yrotation
									JOINT LFingers
									{
OFFSET 0 -0.628770 0.000000
CHANNELS 3 Zrotation Xrotation Yrotation
										End Site
										{
OFFSET 0 -0.506930 0.000000
										}
									}
								}
								JOINT LThumb
								{
OFFSET 0 0.000000 0.000000
CHANNELS 3 Zrotation Xrotation Yrotation
									End Site
									{
OFFSET 0 -0.514670 0.514670
									}
								}
							}
						}
					}
				}
				JOINT RightCollar
				{
					OFFSET 0 0 0
					CHANNELS 3 Zrotation Yrotation Xrotation
					JOINT RightShoulder
					{
						OFFSET -3.33565 1.14597 0.05047
CHANNELS 3 Zrotation Xrotation Yrotation
						JOINT RightElbow
						{
OFFSET 0 -5.490200 0.000000
CHANNELS 3 Zrotation Xrotation Yrotation
							JOINT RightWrist
							{
OFFSET 0 -3.206590 -0.000000
CHANNELS 3 Zrotation Xrotation Yrotation
								JOINT rhand
								{
									OFFSET 0 0 0
CHANNELS 3 Zrotation Xrotation Yrotation
									JOINT RFingers
									{
OFFSET 0 -0.691880 0.000000
CHANNELS 3 Zrotation Xrotation Yrotation
										End Site
										{
OFFSET 0 -0.557810 0.000000
										}
									}
								}
								JOINT RThumb
								{
OFFSET 0 0.000000 0.000000
CHANNELS 3 Zrotation Xrotation Yrotation
									End Site
									{
OFFSET 0 -0.566330 0.566330
									}
								}
							}
						}
					}
				}
			}
		}
	}
}
MOTION
Frames: 12
Frame Time: 0.008333333333333333
0.462145 17.643400 8.500196 -8.226373 22.393450 17.442961 0.000000 0.000000 0.000000 -0.889463 -40.539713 -6.886032 0.000435 -0.128238 -0.352411 -3.140746 29.619579 -14.844596 0.398168 -4.046336 -11.207775 0.000000 0.000000 0.000000 23.401296 29.652168 2.298406 -0.001091 -0.209446 0.575499 0.938920 -31.773146 -40.206582 -1.027823 -6.447185 18.088078 10.762277 4.673181 8.891064 1.505945 8.061690 -6.548895 -5.720143 3.125177 -10.934909 15.832285 12.555969 -7.024081 -10.003792 16.950951 16.299627 -3.957402 8.332191 8.437484 0.000000 0.000000 0.000000 24.631034 -9.680360 -34.095768 146.243675 -43.903357 106.056202 -60.207160 -11.218520 -2.778022 0.000000 0.000000 0.000000 -7.125000 0.000000 0.000000 -43.022714 2.187939 -66.702258 0.000000 0.000000 0.000000 -18.787085 -38.044284 58.132888 -133.162162 -51.637529 -96.328819 64.433984 -36.924031 38.513307 0.000000 0.000000 0.000000 7.125000 0.000000 0.000000 89.381385 49.642512 -31.008839
0.374453 17.640821 8.556116 -7.680513 19.897334 17.076948 0.000000 0.000000 0.000000 -2.664967 -40.601871 -4.204531 0.001909 -0.284699 -0.782163 -3.651475 31.740220 -17.268936 0.237685 -3.137484 -8.661750 0.000000 0.000000 0.000000 23.017636 29.149626 2.489095 -0.001760 -0.272767 0.749454 1.173982 -30.775897 -37.451499 -0.735233 -5.476005 15.271877 9.280544 4.774869 6.823507 2.243052 7.735864 -5.903087 -3.828101 3.243768 -9.284990 15.661664 13.249816 -6.189605 -11.040671 18.301600 16.326945 -4.110586 8.919349 8.571957 0.000000 0.000000 0.000000 22.887752 -10.083728 -34.214687 146.010665 -44.076796 105.894335 -60.027985 -10.721458 -2.651306 0.000000 0.000000 0.000000 -7.125000 0.000000 0.000000 -43.020892 2.393863 -66.463088 0.000000 0.000000 0.000000 -20.077890 -38.150766 57.964209 -133.834023 -51.326862 -96.854432 65.143169 -38.909885 38.326949 0.000000 0.000000 0.000000 7.125000 0.000000 0.000000 89.421689 49.506337 -30.611044
0.268138 17.634526 8.627701 -6.923946 17.975182 16.588031 0.000000 0.000000 0.000000 -4.633281 -40.037675 -1.974923 0.002991 -0.351802 -0.966774 -3.904092 32.772073 -18.827089 0.190368 -2.809802 -7.749688 0.000000 0.000000 0.000000 22.809100 28.630199 3.286086 -0.001191 -0.221436 0.608480 1.312361 -30.038415 -35.446205 -0.543487 -4.722595 13.119207 9.692281 4.598887 7.388761 1.138839 7.594501 -6.780584 -5.320309 3.001795 -10.428012 16.442294 13.652633 -5.521740 -9.848302 18.776145 17.673178 -3.772537 9.297092 8.937007 0.000000 0.000000 0.000000 24.131370 -8.940802 -34.940337 145.995497 -44.088028 105.883813 -59.891187 -11.669330 -2.924679 0.000000 0.000000 0.000000 -7.125000 0.000000 0.000000 -43.046439 3.160748 -65.699445 0.000000 0.000000 0.000000 -18.028513 -35.912988 58.786408 -134.571463 -50.976638 -97.428799 64.990234 -38.627912 38.365865 0.000000 0.000000 0.000000 7.125000 0.000000 0.000000 89.415275 49.535246 -30.698304
0.147062 17.646716 8.698620 -8.315757 17.395720 15.913332 0.000000 0.000000 0.000000 -2.750216 -38.085406 -2.059275 0.002748 -0.340604 -0.935835 -3.664955 31.941846 -18.583513 0.224207 -3.047145 -8.410097 0.000000 0.000000 0.000000 24.984863 28.196029 3.367013 -0.002492 -0.323807 0.889654 1.296053 -29.251347 -34.161908 -0.450282 -4.304743 11.935719 11.336864 4.441485 6.646343 1.301696 7.569698 -7.471412 -5.988949 2.839541 -10.636197 16.537960 13.905275 -5.095356 -9.200016 19.211942 19.029768 -3.507102 9.576990 9.333394 0.000000 0.000000 0.000000 24.024984 -8.028326 -35.555655 145.904533 -44.155310 105.820461 -59.238300 -11.961573 -3.274203 0.000000 0.000000 0.000000 -7.125000 0.000000 0.000000 -43.140404 5.195973 -63.569811 0.000000 0.000000 0.000000 -17.576675 -34.519547 59.093075 -135.176968 -50.681423 -97.898251 65.888855 -38.287009 36.921443 0.000000 0.000000 0.000000 7.125000 0.000000 0.000000 87.114522 49.048837 -26.202270
0.027241 17.650657 8.765496 -8.742976 16.743321 15.047158 0.000000 0.000000 0.000000 -2.731087 -37.922521 -0.435578 0.003128 -0.362201 -0.995218 -3.748475 32.408956 -19.903349 0.159177 -2.570699 -7.085648 0.000000 0.000000 0.000000 26.223653 27.512683 3.942016 -0.003686 -0.393394 1.080960 1.239269 -28.510418 -33.199996 -0.418013 -4.149901 11.498882 12.398815 4.509519 6.298021 0.881050 7.759169 -8.091678 -7.036137 2.780938 -10.946451 16.710626 13.883902 -4.718265 -8.145638 19.149275 20.426056 -3.193351 9.667070 9.655574 0.000000 0.000000 0.000000 24.340625 -7.335164 -36.038119 145.666328 -44.330440 105.654293 -59.142189 -12.015255 -3.261477 0.000000 0.000000 0.000000 -7.125000 0.000000 0.000000 -43.149983 5.384933 -63.358940 0.000000 0.000000 0.000000 -17.076831 -32.984072 59.168611 -135.716297 -50.412734 -98.314633 65.978849 -38.478432 36.564420 0.000000 0.000000 0.000000 7.125000 0.000000 0.000000 86.443778 48.932035 -25.012314
-0.087193 17.640865 8.852193 -8.798078 16.480851 13.915397 0.000000 0.000000 0.000000 -3.549368 -37.403881 1.588991 0.004023 -0.411188 -1.129671 -3.773870 32.528632 -20.138606 0.181464 -2.742601 -7.562936 0.000000 0.000000 0.000000 27.234480 25.913309 4.867114 -0.003868 -0.400581 1.100785 1.140057 -27.587173 -32.204760 -0.360883 -3.858609 10.679328 12.442340 4.616709 5.405993 0.785612 7.775080 -8.270908 -7.071748 2.808033 -10.591578 16.394273 13.957849 -4.674617 -7.073125 19.192210 21.653347 -2.765926 9.768262 9.943147 0.000000 0.000000 0.000000 24.150595 -6.941159 -36.075884 145.361879 -44.551998 105.441076 -59.298744 -10.821042 -2.805819 0.000000 0.000000 0.000000 -7.125000 0.000000 0.000000 -43.081733 4.296534 -64.446985 0.000000 0.000000 0.000000 -17.101262 -32.362149 59.387342 -136.218804 -50.157166 -98.701217 65.035709 -38.207548 37.802933 0.000000 0.000000 0.000000 7.125000 0.000000 0.000000 88.388583 49.388256 -28.910467
-0.207249 17.638589 8.932155 -9.073171 16.859992 12.825483 0.000000 0.000000 0.000000 -3.662210 -36.905712 2.999844 0.005254 -0.466615 -1.282149 -3.691603 32.202517 -19.785451 0.248846 -3.209974 -8.863827 0.000000 0.000000 0.000000 28.438417 24.226917 5.513040 -0.004889 -0.451733 1.241336 1.057576 -26.882190 -31.513407 -0.328000 -3.680740 10.180213 12.702066 4.759414 4.599620 0.657459 7.895222 -8.642460 -7.290089 2.841521 -10.467213 16.260756 13.887134 -4.736235 -6.128114 19.017373 22.886344 -2.428031 9.774968 10.264521 0.000000 0.000000 0.000000 24.185766 -6.330343 -36.060287 145.341521 -44.566725 105.426775 -59.989278 -10.646919 -2.712898 0.000000 0.000000 0.000000 -7.125000 0.000000 0.000000 -43.025782 2.585110 -66.271901 0.000000 0.000000 0.000000 -16.976516 -31.623811 59.552881 -136.645408 -49.936342 -99.028244 65.047848 -38.204600 37.673652 0.000000 0.000000 0.000000 7.125000 0.000000 0.000000 88.149934 49.352379 -28.495146
-0.323410 17.628703 9.002342 -9.288769 17.658611 11.609834 0.000000 0.000000 0.000000 -3.896448 -36.789383 4.356947 0.004453 -0.431322 -1.185155 -3.600832 31.842434 -19.431936 0.243439 -3.174903 -8.766168 0.000000 0.000000 0.000000 29.515289 22.395306 6.158895 -0.006770 -0.530964 1.459090 0.879377 -26.088999 -31.356227 -0.352380 -3.813931 10.553765 12.805727 5.017565 4.029571 0.483393 8.186544 -8.997010 -7.510869 2.961299 -10.436639 15.904716 13.661517 -4.902891 -5.101077 18.573720 23.799654 -2.074544 9.650577 10.429846 0.000000 0.000000 0.000000 24.221085 -6.074398 -36.318400 145.257319 -44.627542 105.367680 -59.794736 -10.772746 -2.702513 0.000000 0.000000 0.000000 -7.125000 0.000000 0.000000 -43.033914 3.014490 -65.812840 0.000000 0.000000 0.000000 -16.776301 -30.807728 59.651187 -137.058939 -49.719026 -99.344232 65.385068 -38.395131 37.615210 0.000000 0.000000 0.000000 7.125000 0.000000 0.000000 88.214074 49.298057 -28.387666
-0.436214 17.615061 9.063590 -9.720303 18.926073 10.285295 0.000000 0.000000 0.000000 -3.584743 -36.405116 5.173234 0.003521 -0.381633 -1.048672 -3.337079 30.779920 -18.496147 0.367376 -3.890480 -10.769060 0.000000 0.000000 0.000000 30.890063 20.854726 7.008932 -0.007869 -0.572410 1.572832 0.778692 -25.882923 -31.688964 -0.374132 -3.928744 10.876194 12.927927 5.198958 3.511186 0.385252 8.385957 -9.294290 -7.652202 3.041535 -10.399910 16.002496 13.460812 -5.123423 -4.355947 18.164031 24.757964 -1.857092 9.556109 10.715390 0.000000 0.000000 0.000000 24.344847 -5.570479 -36.258435 145.392303 -44.529902 105.462518 -60.113901 -10.671279 -2.493586 0.000000 0.000000 0.000000 -7.125000 0.000000 0.000000 -43.010806 1.933426 -66.920336 0.000000 0.000000 0.000000 -16.410783 -30.606284 60.052841 -137.418896 -49.526787 -99.618454 65.499401 -38.471318 37.374041 0.000000 0.000000 0.000000 7.125000 0.000000 0.000000 87.807845 49.219482 -27.622979
-0.536306 17.601755 9.111549 -9.992594 20.705700 9.099020 0.000000 0.000000 0.000000 -3.370415 -36.465166 5.624989 0.001762 -0.273325 -0.751000 -3.054086 29.572571 -17.452725 0.508622 -4.571186 -12.689371 0.000000 0.000000 0.000000 31.959541 19.320332 7.773748 -0.006649 -0.527189 1.448660 0.708949 -26.007299 -32.349369 -0.446856 -4.288031 11.888684 12.920061 5.424822 2.990691 0.212182 8.627115 -9.584205 -7.803621 3.152714 -10.344474 15.428204 13.180791 -5.616994 -3.015934 17.521625 25.723073 -1.363723 9.358380 10.904941 0.000000 0.000000 0.000000 24.391423 -5.471948 -36.416450 145.377534 -44.540633 105.452105 -60.873186 -10.991178 -2.507925 0.000000 0.000000 0.000000 -7.125000 0.000000 0.000000 -43.017392 0.159872 -68.767455 0.000000 0.000000 0.000000 -16.131960 -30.525800 60.401996 -137.730819 -49.358316 -99.855399 64.755607 -37.475202 36.338755 0.000000 0.000000 0.000000 7.125000 0.000000 0.000000 85.420826 48.975692 -24.044659
-0.627293 17.584736 9.148220 -10.311737 22.799470 7.903755 0.000000 0.000000 0.000000 -2.936159 -36.412561 5.669740 0.000767 -0.178547 -0.490583 -2.703935 27.951914 -15.951133 0.714505 -5.398882 -15.050649 0.000000 0.000000 0.000000 32.974549 17.769479 8.403331 -0.006835 -0.533934 1.467136 0.465272 -25.817420 -33.580796 -0.649307 -5.154211 14.348910 12.833424 5.664517 2.526353 0.068558 8.889417 -9.829066 -7.882708 3.285870 -10.278188 14.884733 12.790509 -6.213154 -1.768776 16.726088 26.803659 -0.910036 9.094677 11.173622 0.000000 0.000000 0.000000 24.329878 -5.309577 -36.635006 145.341073 -44.567028 105.426495 -61.382275 -10.793944 -2.339168 0.000000 0.000000 0.000000 -7.125000 0.000000 0.000000 -43.052262 -1.363373 -70.296670 0.000000 0.000000 0.000000 -16.119374 -30.671660 60.797613 -137.976339 -49.224146 -100.041559 65.475278 -39.597934 38.074276 0.000000 0.000000 0.000000 7.125000 0.000000 0.000000 89.131303 49.404669 -29.897382
-0.702925 17.568046 9.172967 -10.468364 25.059368 6.882517 0.000000 0.000000 0.000000 -2.768349 -36.867610 5.729986 0.000298 -0.107025 -0.294070 -2.417861 26.523206 -14.603988 0.932671 -6.151810 -17.225632 0.000000 0.000000 0.000000 33.695254 16.367926 8.990711 -0.005093 -0.462080 1.269622 0.310834 -26.042400 -34.829111 -0.827695 -5.804062 16.217092 12.675988 6.035101 2.201972 -0.275314 9.338565 -10.156069 -8.171029 3.494712 -10.323997 14.144220 12.226040 -6.657773 -0.302825 15.654048 27.630605 -0.409234 8.722780 11.273201 0.000000 0.000000 0.000000 24.561312 -5.357127 -37.136508 145.412670 -44.515201 105.476718 -61.628838 -11.649958 -2.554774 0.000000 0.000000 0.000000 -7.125000 0.000000 0.000000 -43.065476 -1.597403 -70.555257 0.000000 0.000000 0.000000 -15.873439 -30.417076 60.873218 -137.891587 -49.270598 -99.977308 65.500698 -39.345765 37.870250 0.000000 0.000000 0.000000 7.125000 0.000000 0.000000 88.761728 49.350760 -29.247916
